<?xml version="1.0" encoding="utf-8"?>
<svg version="1.0" xmlns="http://www.w3.org/2000/svg" width="1584.000000pt" height="672.000000pt" preserveAspectRatio="xMidYMid meet" viewBox="5.325 161.929 1573.87 370.14">
  <g transform="translate(0.000000,672.000000) scale(0.100000,-0.100000)" fill="#000000" stroke="none">
    <path d="M1678 5029 c-389 -53 -739 -229 -1024 -513 -80 -81 -208 -237 -216 -264 -3 -9 142 -122 155 -122 3 0 32 35 64 78 250 334 639 564 1049 621 98 14 324 15 427 1 186 -24 440 -110 571 -194 39 -25 59 -47 76 -81 58 -120 -30 -265 -161 -265 -31 0 -73 15 -153 54 -188 91 -315 125 -506 133 -255 12 -504 -59 -722 -204 -90 -60 -252 -218 -306 -300 l-42 -62 114 -83 c62 -46 213 -156 334 -246 248 -183 293 -207 357 -198 41 7 69 22 274 152 91 58 126 69 202 62 160 -16 228 -229 116 -370 -7 -9 -73 -54 -147 -100 -74 -47 -180 -113 -234 -147 -54 -34 -116 -71 -137 -82 -49 -25 -133 -25 -181 -1 -31 16 -487 337 -751 529 -48 35 -93 66 -101 69 -20 8 -40 -165 -33 -285 31 -514 371 -953 852 -1104 142 -44 193 -51 370 -52 186 0 254 11 415 67 436 152 772 577 805 1018 11 158 14 169 53 212 20 23 51 47 69 55 83 34 186 1 234 -75 27 -42 29 -53 29 -141 0 -204 -68 -459 -177 -661 -296 -551 -867 -882 -1478 -857 -403 16 -764 176 -1056 467 -411 409 -564 962 -423 1523 9 37 15 69 13 70 -2 2 -39 29 -82 61 -44 32 -82 54 -87 50 -11 -12 -55 -161 -77 -264 -15 -69 -18 -130 -18 -325 1 -258 8 -315 70 -531 45 -155 162 -381 277 -535 266 -354 654 -601 1083 -689 483 -99 985 8 1396 296 447 314 721 808 755 1364 6 96 5 110 -16 158 -25 58 -74 95 -141 107 -36 7 -37 7 -43 68 -38 341 -260 755 -532 991 l-82 71 6 56 c9 109 -27 158 -169 229 -148 75 -304 130 -468 167 -101 22 -144 26 -326 29 -115 1 -240 -2 -277 -7z" style="fill: rgb(1, 161, 65);"/>
    <path d="M4980 4124 c-162 -29 -258 -69 -363 -153 -139 -110 -223 -257 -269 -466 -20 -90 -16 -401 5 -489 40 -161 132 -325 232 -413 136 -120 272 -173 465 -180 195 -8 334 28 465 121 131 94 230 250 260 409 l7 38 -147 -3 -148 -3 -28 -69 c-40 -98 -90 -153 -184 -201 -77 -39 -79 -40 -184 -39 -126 1 -186 20 -272 88 -129 101 -189 266 -189 514 0 215 48 359 158 474 65 68 132 103 229 118 75 12 177 1 240 -25 95 -40 170 -123 209 -229 l22 -61 138 -3 c75 -1 142 2 147 7 14 14 -29 154 -71 236 -53 101 -158 202 -264 254 -46 23 -110 48 -143 56 -59 16 -265 28 -315 19z" style="fill: rgb(29, 29, 29);"/>
    <path d="M6896 4058 c-3 -29 -10 -138 -16 -243 -16 -290 -40 -593 -51 -665 -31 -195 -94 -354 -169 -432 -44 -45 -49 -48 -98 -48 l-52 0 0 -315 0 -315 140 0 140 0 2 198 3 197 528 3 527 2 0 -200 0 -200 145 0 145 0 0 315 0 315 -85 0 -85 0 -2 718 -3 717 -532 3 -532 2 -5 -52z m774 -788 l0 -600 -350 0 c-192 0 -350 2 -350 4 0 3 17 40 39 83 102 206 119 317 157 996 l7 117 248 0 249 0 0 -600z" style="fill: rgb(29, 29, 29);"/>
    <path d="M8380 3275 l0 -835 550 0 550 0 0 120 0 120 -400 0 -400 0 0 240 0 240 365 0 365 0 0 120 0 120 -365 0 -365 0 0 235 0 235 400 0 400 0 0 120 0 120 -550 0 -550 0 0 -835z" style="fill: rgb(29, 29, 29);"/>
    <path d="M9767 4103 c-4 -3 -7 -379 -7 -835 l0 -828 150 0 150 0 0 355 0 355 73 1 c39 0 209 0 377 0 l305 -2 5 -352 5 -352 148 -3 147 -3 0 836 0 836 -147 -3 -148 -3 -3 -352 -2 -353 -380 0 -380 0 0 355 0 355 -143 0 c-79 0 -147 -3 -150 -7z" style="fill: rgb(29, 29, 29);"/>
    <path d="M11450 3275 l0 -836 403 3 402 3 75 27 c101 35 155 67 216 128 91 90 134 199 134 340 0 202 -96 357 -274 444 -114 55 -192 68 -438 74 l-218 4 -2 322 -3 321 -147 3 -148 3 0 -836z m720 -66 c68 -15 138 -64 175 -123 24 -40 30 -62 34 -123 4 -93 -14 -145 -71 -202 -73 -71 -121 -84 -355 -89 l-203 -4 0 276 0 276 185 0 c101 0 207 -5 235 -11z" style="fill: rgb(29, 29, 29);"/>
    <path d="M12970 3275 l0 -835 150 0 150 0 0 715 0 715 385 0 385 0 0 120 0 120 -535 0 -535 0 0 -835z" style="fill: rgb(29, 29, 29);"/>
    <path d="M14290 3275 l0 -835 140 0 140 0 118 178 c66 97 227 335 358 527 132 193 253 371 269 397 17 27 33 48 38 48 4 0 7 -259 7 -575 l0 -575 151 0 c134 0 150 2 145 16 -3 9 -6 384 -6 835 l0 819 -134 0 -134 0 -320 -467 c-175 -258 -349 -513 -386 -568 -37 -55 -72 -101 -77 -103 -5 -2 -9 219 -9 567 l0 571 -150 0 -150 0 0 -835z" style="fill: rgb(29, 29, 29);"/>
    <rect x="6047.85" y="-3368.8" width="516.076" height="217.161" style="fill: rgb(29, 29, 29);" transform="matrix(1, 0, 0, -1, 0, 0)"/>
  </g>
</svg>