<?xml version="1.0" encoding="utf-8"?>
<svg version="1.0" xmlns="http://www.w3.org/2000/svg" width="1584.000000pt" height="672.000000pt" preserveAspectRatio="xMidYMid meet" viewBox="0 0 40 40">
  <g transform="matrix(0.010861, 0, 0, -0.010861, -0.993942, 55.428513)" fill="#000000" stroke="none" style="">
    <path d="M1678 5029 c-389 -53 -739 -229 -1024 -513 -80 -81 -208 -237 -216 -264 -3 -9 142 -122 155 -122 3 0 32 35 64 78 250 334 639 564 1049 621 98 14 324 15 427 1 186 -24 440 -110 571 -194 39 -25 59 -47 76 -81 58 -120 -30 -265 -161 -265 -31 0 -73 15 -153 54 -188 91 -315 125 -506 133 -255 12 -504 -59 -722 -204 -90 -60 -252 -218 -306 -300 l-42 -62 114 -83 c62 -46 213 -156 334 -246 248 -183 293 -207 357 -198 41 7 69 22 274 152 91 58 126 69 202 62 160 -16 228 -229 116 -370 -7 -9 -73 -54 -147 -100 -74 -47 -180 -113 -234 -147 -54 -34 -116 -71 -137 -82 -49 -25 -133 -25 -181 -1 -31 16 -487 337 -751 529 -48 35 -93 66 -101 69 -20 8 -40 -165 -33 -285 31 -514 371 -953 852 -1104 142 -44 193 -51 370 -52 186 0 254 11 415 67 436 152 772 577 805 1018 11 158 14 169 53 212 20 23 51 47 69 55 83 34 186 1 234 -75 27 -42 29 -53 29 -141 0 -204 -68 -459 -177 -661 -296 -551 -867 -882 -1478 -857 -403 16 -764 176 -1056 467 -411 409 -564 962 -423 1523 9 37 15 69 13 70 -2 2 -39 29 -82 61 -44 32 -82 54 -87 50 -11 -12 -55 -161 -77 -264 -15 -69 -18 -130 -18 -325 1 -258 8 -315 70 -531 45 -155 162 -381 277 -535 266 -354 654 -601 1083 -689 483 -99 985 8 1396 296 447 314 721 808 755 1364 6 96 5 110 -16 158 -25 58 -74 95 -141 107 -36 7 -37 7 -43 68 -38 341 -260 755 -532 991 l-82 71 6 56 c9 109 -27 158 -169 229 -148 75 -304 130 -468 167 -101 22 -144 26 -326 29 -115 1 -240 -2 -277 -7z" style="fill: rgb(1, 161, 65);"/>
  </g>
</svg>