<?xml version="1.0" encoding="UTF-8" ?>
<!DOCTYPE svg PUBLIC "-//W3C//DTD SVG 1.1//EN">
<svg width="1155pt" height="574pt" viewBox="0 0 1155 574" version="1.1" xmlns="http://www.w3.org/2000/svg">
<path fill="#df212f" d=" M 0.00 0.00 L 1155.00 0.00 L 1155.00 574.00 L 0.00 574.00 L 0.00 0.00 Z" />
<path fill="#f8bd15" d=" M 198.29 71.99 C 204.85 65.47 211.25 58.78 217.97 52.44 C 225.00 58.92 231.90 65.55 238.95 72.00 C 231.87 78.41 225.01 85.06 217.99 91.54 C 211.24 85.22 204.87 78.50 198.29 71.99 Z" />
<path fill="#f8bd15" d=" M 178.00 102.94 C 189.36 99.95 201.09 98.74 212.79 98.03 C 212.83 135.38 212.80 172.73 212.80 210.08 C 200.18 210.15 187.56 210.17 174.94 210.09 C 170.68 210.20 167.11 206.89 165.58 203.13 C 156.42 181.61 147.61 159.94 138.29 138.49 C 135.86 140.21 133.40 141.91 130.88 143.51 C 139.42 165.90 149.14 187.85 157.99 210.12 C 151.40 210.06 144.80 210.31 138.22 209.95 C 131.42 185.28 120.75 161.95 111.03 138.35 C 130.14 121.47 153.14 108.87 178.00 102.94 Z" />
<path fill="#f8bd15" d=" M 223.10 98.01 C 239.43 98.91 255.77 101.37 271.23 106.86 C 291.02 113.43 309.01 124.63 324.76 138.19 C 316.17 162.70 305.33 186.34 294.90 210.11 C 289.23 210.14 283.57 210.14 277.90 210.11 C 285.49 191.61 293.14 173.14 300.74 154.64 C 302.27 150.97 303.89 147.32 305.05 143.52 C 302.55 141.80 300.01 140.14 297.38 138.63 C 288.61 160.00 279.50 181.23 270.62 202.55 C 269.10 206.54 265.51 210.21 260.98 210.09 C 248.35 210.20 235.72 210.10 223.09 210.12 C 223.16 172.75 223.10 135.38 223.10 98.01 Z" />
<path fill="#df212f" d=" M 155.42 130.73 C 167.89 125.24 181.07 121.44 194.46 118.91 C 194.52 144.47 194.38 170.03 194.53 195.59 C 189.65 195.60 182.85 197.30 180.30 191.73 C 171.78 171.50 163.85 151.00 155.42 130.73 Z" />
<path fill="#df212f" d=" M 241.40 118.94 C 254.56 121.39 267.58 125.01 279.80 130.50 C 280.28 132.61 278.55 134.75 277.98 136.81 C 271.29 153.22 264.68 169.67 258.04 186.11 C 256.64 189.62 255.49 193.95 251.59 195.47 C 248.23 196.02 244.80 195.67 241.41 195.70 C 241.51 170.11 241.47 144.52 241.40 118.94 Z" />
<path fill="#fefafa" d=" M 331.31 143.74 C 345.38 131.59 364.98 128.41 383.00 129.60 C 395.79 130.93 409.61 133.49 419.12 142.90 C 427.17 150.46 429.06 162.56 426.97 173.00 C 425.19 182.10 419.11 190.13 410.90 194.41 C 418.50 198.73 426.01 204.43 428.92 213.05 C 432.04 223.18 429.77 234.40 424.79 243.56 C 418.28 255.35 405.91 262.77 393.08 265.82 C 379.74 268.90 365.71 267.37 352.78 263.23 C 343.54 260.17 334.70 255.63 327.37 249.17 C 330.24 245.06 332.76 240.73 335.50 236.54 C 336.93 234.28 339.05 232.16 341.88 231.98 C 346.64 231.24 350.67 234.29 354.67 236.33 C 364.65 241.77 376.56 244.23 387.76 241.69 C 393.09 240.55 397.84 236.63 399.26 231.27 C 400.75 225.77 401.20 219.22 397.67 214.38 C 393.79 209.01 386.91 207.07 380.64 206.44 C 372.88 205.98 365.11 206.43 357.36 206.18 C 357.52 198.36 357.30 190.53 357.46 182.72 C 365.98 182.56 374.56 183.25 383.03 182.03 C 387.93 181.40 392.98 178.86 395.22 174.25 C 397.53 168.39 396.91 160.29 391.16 156.63 C 384.47 152.31 376.01 152.37 368.42 153.61 C 361.53 154.80 355.57 158.60 349.21 161.24 C 345.81 162.73 341.53 161.58 339.55 158.38 C 336.55 153.65 334.19 148.55 331.31 143.74 Z" />
<path fill="#fefafa" d=" M 479.53 167.84 C 493.54 165.86 508.86 167.95 520.40 176.63 C 530.11 183.79 536.18 195.12 537.89 206.96 C 539.81 220.42 537.98 234.92 530.46 246.48 C 524.09 256.48 513.59 263.50 502.06 266.04 C 488.00 269.08 472.59 267.39 460.17 259.87 C 449.07 253.04 441.60 241.14 439.32 228.40 C 437.27 216.67 438.03 204.09 443.38 193.30 C 449.92 179.27 464.34 169.78 479.53 167.84 Z" />
<path fill="#fefafa" d=" M 685.59 167.83 C 700.24 165.75 716.39 168.23 728.01 177.96 C 737.08 185.34 742.51 196.47 743.97 207.97 C 745.71 221.79 743.52 236.68 735.23 248.18 C 728.84 257.30 718.89 263.61 708.06 266.03 C 693.87 269.15 678.10 267.39 665.92 259.10 C 656.07 252.44 649.38 241.71 646.95 230.15 C 644.09 216.44 645.31 201.44 652.41 189.15 C 659.37 177.36 672.10 169.57 685.59 167.83 Z" />
<path fill="#fefafa" d=" M 844.87 170.99 C 857.90 169.36 870.91 166.89 884.10 167.23 C 893.88 167.51 903.45 171.66 910.46 178.47 C 918.00 185.97 922.57 196.38 923.12 206.99 C 923.13 227.15 923.12 247.32 923.12 267.49 C 917.45 267.37 911.76 267.76 906.11 267.32 C 900.92 266.82 900.75 260.49 898.33 257.00 C 891.83 260.60 886.33 266.22 878.89 267.91 C 868.67 270.48 857.08 269.59 848.14 263.68 C 840.79 258.70 837.54 249.58 837.12 241.03 C 836.52 230.92 841.32 220.56 849.69 214.80 C 855.81 210.89 862.73 208.51 869.61 206.29 C 877.24 204.12 885.23 203.76 893.12 203.62 C 893.36 198.02 890.26 192.18 884.64 190.59 C 875.12 188.04 865.45 191.38 855.94 192.24 C 852.18 192.78 848.53 190.56 846.88 187.23 C 844.41 182.20 844.69 176.43 844.87 170.99 Z" />
<path fill="#fefafa" d=" M 557.87 222.78 C 561.07 205.28 559.68 187.41 560.74 169.74 C 585.51 169.73 610.28 169.73 635.05 169.74 C 635.01 202.33 635.10 234.91 635.00 267.50 C 625.46 267.50 615.92 267.49 606.39 267.51 C 606.33 242.30 606.38 217.09 606.36 191.89 C 599.41 191.87 592.45 191.88 585.50 191.89 C 584.67 206.48 584.30 221.19 581.22 235.53 C 579.20 244.75 575.85 254.17 569.02 260.95 C 561.84 268.32 550.93 270.49 541.01 270.05 C 538.72 270.10 536.07 268.65 536.12 266.09 C 535.81 260.09 536.09 254.06 536.00 248.05 C 540.45 247.68 545.00 246.28 548.52 243.47 C 553.86 237.89 556.60 230.29 557.87 222.78 Z" />
<path fill="#fefafa" d=" M 743.23 169.75 C 773.65 169.72 804.08 169.74 834.50 169.74 C 834.51 176.66 834.51 183.58 834.50 190.49 C 824.50 190.50 814.51 190.49 804.51 190.50 C 804.49 215.71 804.52 240.91 804.50 266.12 C 794.50 266.13 784.50 266.13 774.50 266.12 C 774.48 240.91 774.51 215.71 774.49 190.50 C 764.07 190.48 753.65 190.52 743.23 190.48 C 743.24 183.57 743.23 176.66 743.23 169.75 Z" />
<path fill="#fefafa" d=" M 944.56 178.55 C 953.39 172.30 964.36 169.83 975.05 169.77 C 988.16 169.68 1001.27 169.76 1014.38 169.74 C 1014.38 201.87 1014.39 233.99 1014.38 266.12 C 1005.25 266.13 996.12 266.12 987.00 266.12 C 986.95 253.48 987.10 240.83 986.91 228.19 C 983.37 228.46 979.28 228.84 977.07 232.02 C 970.52 240.29 968.64 251.14 963.01 259.95 C 960.23 264.34 954.85 265.88 949.94 266.03 C 942.31 266.24 934.68 266.08 927.05 266.10 C 934.07 254.44 940.99 242.71 948.13 231.13 C 950.60 226.97 954.77 224.17 959.46 223.11 C 950.42 221.25 940.93 216.66 936.88 207.87 C 932.15 197.84 936.28 185.39 944.56 178.55 Z" />
<path fill="#df212f" d=" M 971.08 189.11 C 976.16 187.28 981.71 188.23 987.00 188.00 C 986.99 196.25 987.01 204.49 986.99 212.74 C 980.61 212.33 972.82 214.40 967.88 209.15 C 961.77 203.83 963.23 191.97 971.08 189.11 Z" />
<path fill="#df212f" d=" M 481.38 190.68 C 487.33 188.74 494.39 188.81 499.80 192.24 C 506.20 196.55 507.90 204.83 508.42 212.03 C 508.84 220.90 508.85 230.42 504.41 238.40 C 498.64 248.55 482.70 249.11 475.08 240.87 C 470.43 235.44 469.11 227.98 469.35 221.03 C 469.62 213.52 469.47 205.63 472.83 198.71 C 474.48 195.05 477.59 192.06 481.38 190.68 Z" />
<path fill="#df212f" d=" M 687.41 190.64 C 694.76 188.26 704.31 189.02 709.33 195.56 C 714.74 203.15 714.61 213.01 714.46 221.93 C 714.01 229.97 712.28 239.33 704.95 243.98 C 697.54 248.14 687.02 247.32 681.10 240.93 C 676.42 235.51 675.05 228.05 675.33 221.08 C 675.59 213.55 675.37 205.62 678.77 198.69 C 680.46 195.01 683.58 192.00 687.41 190.64 Z" />
<path fill="#f8bd15" d=" M 142.00 218.99 C 193.00 218.99 244.00 218.98 295.00 218.99 C 295.00 224.99 295.00 231.00 295.00 237.00 C 244.00 237.00 193.00 237.00 142.00 237.00 C 142.00 231.00 142.00 224.99 142.00 218.99 Z" />
<path fill="#df212f" d=" M 866.43 227.41 C 874.13 223.15 883.27 223.47 891.80 223.09 C 891.96 227.98 893.30 232.94 892.70 237.79 C 886.41 244.81 875.78 248.56 866.71 245.22 C 859.23 242.54 859.81 230.76 866.43 227.41 Z" />
<path fill="#fefafa" d=" M 142.37 249.23 C 157.58 249.22 172.79 249.24 188.00 249.23 C 188.01 274.85 187.99 300.48 188.01 326.11 C 193.29 326.25 198.66 326.07 203.77 324.57 C 205.94 323.68 207.56 321.84 208.98 320.04 C 220.23 304.92 226.38 286.72 237.66 271.61 C 242.07 265.45 247.49 259.77 254.38 256.42 C 267.08 250.80 281.21 250.12 294.89 250.49 C 294.87 259.68 294.95 268.87 294.87 278.06 C 295.00 281.38 293.54 284.84 290.62 286.57 C 286.22 289.10 280.98 289.44 276.41 291.56 C 272.42 293.22 269.20 296.30 266.77 299.81 C 259.33 310.01 256.53 322.80 248.94 332.91 C 246.39 336.30 242.82 338.71 239.03 340.52 C 244.94 341.97 250.55 344.78 255.01 348.95 C 259.93 353.86 263.70 359.77 267.23 365.72 C 281.15 390.33 295.25 414.85 309.13 439.49 C 295.42 439.51 281.71 439.49 268.00 439.51 C 263.38 439.63 258.44 438.28 255.38 434.62 C 252.36 431.61 251.20 427.41 249.05 423.84 C 238.27 404.98 227.57 386.06 216.78 367.21 C 214.65 363.45 211.17 360.43 206.89 359.50 C 200.68 358.22 194.29 358.93 188.00 358.76 C 188.00 385.25 188.00 411.75 188.00 438.25 C 174.01 438.27 160.03 438.21 146.04 438.28 C 144.93 437.92 141.99 439.06 142.38 436.98 C 142.34 374.40 142.37 311.82 142.37 249.23 Z" />
<path fill="#fefafa" d=" M 357.54 296.79 C 374.90 294.95 393.27 297.53 408.29 306.87 C 420.93 314.64 430.42 327.13 435.10 341.17 C 439.63 354.25 440.29 368.39 438.87 382.06 C 438.19 389.50 435.79 396.67 432.28 403.24 C 426.72 415.25 417.53 425.61 406.12 432.36 C 390.51 441.39 371.65 443.68 354.00 440.91 C 338.34 438.59 323.36 431.10 312.68 419.31 C 303.63 408.92 297.37 395.95 295.70 382.21 C 293.50 364.36 295.57 345.46 304.56 329.62 C 314.97 310.34 336.09 298.68 357.54 296.79 Z" />
<path fill="#fefafa" d=" M 515.91 298.54 C 526.93 295.64 539.06 294.96 549.82 299.21 C 563.49 304.74 572.92 317.19 578.61 330.37 C 583.31 340.22 584.67 351.24 585.25 362.02 C 586.15 381.87 581.21 402.28 569.67 418.62 C 561.75 429.88 549.70 438.32 536.12 440.97 C 524.72 443.18 512.43 442.21 502.00 436.87 C 498.33 435.11 495.05 432.67 491.66 430.45 C 491.69 448.24 491.73 466.03 491.68 483.83 C 477.79 484.35 463.90 484.78 450.00 485.15 C 450.00 423.01 450.00 360.88 450.00 298.74 C 458.64 298.78 467.29 298.64 475.94 298.79 C 480.08 298.74 484.58 300.72 486.17 304.78 C 487.41 308.35 488.09 312.08 489.08 315.72 C 496.33 307.79 505.44 301.36 515.91 298.54 Z" />
<path fill="#fefafa" d=" M 656.61 296.83 C 675.44 294.73 695.58 297.73 711.39 308.72 C 725.49 318.39 734.52 334.27 737.58 350.91 C 740.57 367.49 739.84 385.07 733.66 400.86 C 727.96 416.02 716.05 428.76 701.23 435.33 C 686.20 442.08 669.13 443.41 652.96 440.89 C 636.75 438.30 621.08 430.37 610.70 417.46 C 598.86 403.25 594.03 384.25 594.71 366.00 C 595.20 348.13 601.02 329.70 613.87 316.84 C 624.95 305.06 640.75 298.66 656.61 296.83 Z" />
<path fill="#fefafa" d=" M 904.92 301.32 C 924.11 298.15 943.54 295.70 963.04 296.31 C 979.95 297.01 996.77 305.50 1006.19 319.79 C 1013.49 330.29 1016.11 343.36 1015.64 355.99 C 1015.62 384.28 1015.64 412.57 1015.64 440.87 C 1008.40 440.83 1001.16 441.01 993.93 440.78 C 990.20 440.66 985.91 439.65 983.84 436.23 C 981.63 432.43 980.63 428.09 979.14 423.99 C 963.48 441.89 936.15 448.16 914.27 438.84 C 906.63 435.69 900.37 429.51 897.11 421.92 C 891.83 409.82 890.73 395.66 894.94 383.07 C 900.05 369.97 911.81 360.24 925.04 355.98 C 933.56 353.41 942.07 350.59 950.95 349.53 C 958.59 348.55 966.31 348.38 974.01 348.31 C 974.79 339.97 969.32 331.37 960.91 329.69 C 951.60 327.91 942.06 329.76 932.85 331.33 C 926.89 332.28 920.64 334.47 914.72 332.26 C 910.18 330.63 907.33 326.25 906.12 321.77 C 904.41 315.10 904.45 308.14 904.92 301.32 Z" />
<path fill="#fefafa" d=" M 751.04 298.73 C 764.95 298.75 778.86 298.72 792.77 298.74 C 792.74 315.67 792.82 332.60 792.72 349.52 C 807.47 349.74 822.22 349.52 836.97 349.64 C 837.14 332.67 836.99 315.70 837.04 298.73 C 850.97 298.75 864.90 298.71 878.83 298.75 C 878.83 345.66 878.83 392.56 878.83 439.47 C 864.90 439.54 850.97 439.46 837.04 439.51 C 837.03 419.97 837.05 400.43 837.03 380.88 C 822.28 380.88 807.52 380.88 792.77 380.89 C 792.79 400.40 792.71 419.92 792.81 439.44 C 778.89 439.58 764.97 439.44 751.04 439.51 C 751.04 392.58 751.04 345.66 751.04 298.73 Z" />
<path fill="#df212f" d=" M 358.53 328.67 C 366.50 326.63 375.49 326.98 382.72 331.20 C 388.62 334.85 392.14 341.35 394.05 347.84 C 396.68 357.97 396.87 368.58 396.06 378.96 C 395.19 388.47 392.69 398.66 385.28 405.25 C 377.90 411.26 367.47 411.89 358.55 409.65 C 352.28 408.07 347.03 403.67 344.03 397.99 C 339.14 389.23 338.79 378.83 339.18 369.05 C 339.32 358.88 339.97 348.15 345.15 339.12 C 348.00 334.02 352.88 330.18 358.53 328.67 Z" />
<path fill="#df212f" d=" M 658.41 328.65 C 666.86 326.51 676.57 327.03 683.90 332.14 C 690.85 337.45 693.98 346.23 695.27 354.60 C 696.65 364.46 696.67 374.57 695.15 384.42 C 693.77 392.70 690.53 401.40 683.44 406.45 C 675.86 411.48 665.95 411.84 657.42 409.34 C 650.61 407.35 645.48 401.67 642.95 395.20 C 638.82 384.99 638.79 373.73 639.10 362.89 C 639.63 353.77 640.99 344.08 646.64 336.58 C 649.47 332.65 653.75 329.90 658.41 328.65 Z" />
<path fill="#df212f" d=" M 491.61 341.82 C 496.89 335.72 503.79 330.58 511.95 329.35 C 518.85 328.20 527.17 328.33 532.24 333.89 C 539.85 341.86 540.76 353.62 541.10 364.07 C 541.27 376.96 540.59 391.01 532.82 401.88 C 528.21 408.48 519.80 411.36 511.98 410.75 C 504.40 410.52 496.53 407.32 491.77 401.35 C 491.50 381.51 491.86 361.66 491.61 341.82 Z" />
<path fill="#df212f" d=" M 938.84 381.67 C 950.13 377.86 962.14 377.22 973.89 375.72 C 973.86 382.94 974.03 390.17 973.82 397.39 C 969.98 399.59 967.44 403.43 963.55 405.55 C 957.93 408.72 951.35 409.68 944.99 409.89 C 939.66 409.82 933.30 408.49 930.52 403.41 C 926.61 395.65 930.39 384.58 938.84 381.67 Z" />
</svg>
