<svg width="3629" height="1080" viewBox="0 0 3629 1080" fill="none" xmlns="http://www.w3.org/2000/svg">
<path d="M0 518.4C0 274.05 0 151.875 75.825 75.825C151.65 -0.225 274.05 7.786e-06 518.4 7.786e-06H561.6C805.95 7.786e-06 928.125 5.36442e-06 1004.18 75.825C1080 151.65 1080 273.825 1080 518.4V561.6C1080 805.95 1080 928.125 1004.18 1004.18C928.35 1080 806.175 1080 561.6 1080H518.4C274.05 1080 151.875 1080 75.825 1004.18C0 928.125 0 805.95 0 561.6V518.4Z" fill="url(#paint0_linear_235_18932)"/>
<path d="M367.2 577.241L440.517 770.323C440.517 770.323 449.682 788.402 459.516 788.402C469.35 788.402 615.314 643.921 615.314 643.921L777.6 345.602L369.877 527.464L367.252 577.29L367.2 577.241Z" fill="#C8DAEA"/>
<path d="M475.2 626.398L453.824 767.689C453.824 767.689 448.453 814.285 490.334 767.689C532.215 721.093 577.8 685.798 577.8 685.798" fill="#A9C6D8"/>
<path d="M375.332 584.764L228.966 536.601C228.966 536.601 211.476 529.432 217.123 513.176C218.272 509.844 220.621 506.966 227.617 502.069C260.048 479.249 827.824 273.067 827.824 273.067C827.824 273.067 843.865 267.615 853.31 271.25C858.057 272.714 861.655 276.702 862.704 281.649C863.704 285.941 864.153 290.333 863.954 294.675C863.954 298.461 863.454 301.995 863.104 307.498C859.656 363.89 756.165 784.535 756.165 784.535C756.165 784.535 749.969 809.172 727.781 809.979C716.788 810.333 706.094 806.142 698.148 798.418C654.623 760.605 504.159 658.422 470.928 635.956C469.429 634.896 468.429 633.23 468.179 631.412C467.73 629.04 470.278 626.111 470.278 626.111C470.278 626.111 732.279 390.849 739.225 366.162C739.774 364.244 737.726 363.284 734.977 364.143C717.587 370.605 415.959 563.055 382.628 584.31C380.23 585.067 377.681 585.218 375.232 584.764H375.332Z" fill="white"/>
<path fill-rule="evenodd" clip-rule="evenodd" d="M1947.14 450.87H1892.54V246.872H1947.34V374.173H1949.27L2030 246.872H2084.61V450.87H2029.81V321.849H2027.72L1947.14 450.87ZM2028.48 218.328C2017.66 223.275 2004.8 225.742 1989.91 225.742C1975.15 225.742 1962.29 223.275 1951.34 218.328C1940.53 213.258 1932.13 206.088 1926.14 196.817C1920.29 187.439 1917.36 176.463 1917.36 163.903V162H1959.36V163.72C1959.36 171.697 1962.04 178.624 1967.38 184.455C1972.73 190.286 1980.24 193.209 1989.91 193.209C1999.46 193.209 2006.97 190.286 2012.44 184.455C2017.91 178.624 2020.65 171.697 2020.65 163.72V162H2062.46V163.903C2062.46 176.463 2059.47 187.439 2053.49 196.817C2047.63 206.088 2039.29 213.258 2028.48 218.328ZM1478.27 333.069H1515.88C1531.91 333.069 1544.45 336.433 1553.49 343.162C1562.65 349.754 1567.23 358.949 1567.23 370.763V371.128C1567.23 378.496 1565.13 384.966 1560.93 390.553C1556.86 396.003 1551.01 400.251 1543.37 403.296C1535.86 406.34 1527.01 407.863 1516.83 407.863C1506.27 407.863 1497.1 406.599 1489.34 404.057C1481.58 401.393 1475.4 397.587 1470.82 392.639C1468.04 389.549 1465.98 386.032 1464.63 382.104C1463.83 379.745 1463.28 377.233 1462.99 374.568L1462.8 372.848H1407.25V374.934C1407.88 390.797 1412.78 404.818 1421.95 416.997C1431.24 429.054 1443.97 438.508 1460.13 445.359C1476.29 452.209 1495 455.619 1516.26 455.619C1537.64 455.619 1556.61 452.209 1573.15 445.359C1589.7 438.371 1602.62 428.795 1611.91 416.616C1621.33 404.437 1626.04 390.553 1626.04 374.934V374.568C1626.04 356.422 1620.63 341.32 1609.81 329.263C1598.99 317.084 1584.23 309.99 1565.52 307.95V306.427C1581.04 303.139 1593.52 295.847 1602.94 284.551C1612.48 273.133 1617.25 259.812 1617.25 244.589V244.208C1617.25 229.745 1613.12 217.064 1604.85 206.149C1596.57 195.233 1584.93 186.739 1569.91 180.649C1555.02 174.56 1537.58 171.515 1517.6 171.515C1496.98 171.515 1479.03 174.742 1463.76 181.228C1448.48 187.682 1436.46 196.893 1427.67 208.813C1419.02 220.611 1414.31 234.693 1413.55 251.059L1413.35 253.342H1467L1467.19 251.059C1468.08 244.33 1470.57 238.621 1474.64 233.932C1478.71 229.106 1484.25 225.498 1491.25 223.093C1498.38 220.55 1506.71 219.287 1516.26 219.287C1526.06 219.287 1534.33 220.55 1541.08 223.093C1547.95 225.62 1553.17 229.304 1556.73 234.115C1560.3 238.819 1562.08 244.528 1562.08 251.257V251.622C1562.08 262.674 1557.88 271.55 1549.48 278.263C1541.08 284.87 1529.69 288.159 1515.3 288.159H1478.27V333.069ZM1728.36 454.097C1737.4 454.097 1745.73 452.773 1753.37 450.108C1761.01 447.323 1767.82 443.441 1773.8 438.508C1779.91 433.423 1784.87 427.395 1788.69 420.422H1789.84V450.87H1845.58V310.994C1845.58 297.293 1841.96 285.312 1834.7 275.036C1827.57 264.76 1817.52 256.828 1804.54 251.257C1791.55 245.532 1776.22 242.686 1758.53 242.686C1740.58 242.686 1725.05 245.472 1711.94 251.059C1698.96 256.509 1688.78 264.121 1681.4 273.894C1674.14 283.668 1670 294.827 1668.99 307.386L1668.79 309.67H1719.77L1720.15 307.95C1721.55 301.358 1725.31 295.908 1731.42 291.599C1737.53 287.276 1745.8 285.114 1756.23 285.114C1767.18 285.114 1775.52 287.793 1781.25 293.122C1786.97 298.313 1789.84 305.422 1789.84 314.435V326.903L1739.24 330.024C1713.91 331.683 1694.31 337.834 1680.44 348.49C1666.57 359.025 1659.63 373.549 1659.63 392.076V392.441C1659.63 404.376 1662.49 415.033 1668.22 424.411C1674.08 433.682 1682.16 440.974 1692.47 446.303C1702.78 451.509 1714.74 454.097 1728.36 454.097ZM1789.84 376.274V361.583L1747.64 364.277C1736.95 364.917 1728.81 367.459 1723.21 371.889C1717.61 376.213 1714.81 381.982 1714.81 389.214V389.594C1714.81 397.084 1717.67 402.976 1723.4 407.299C1729.12 411.471 1736.82 413.572 1746.5 413.572C1754.77 413.572 1762.15 411.988 1768.64 408.822C1775.26 405.518 1780.42 401.073 1784.11 395.486C1787.93 389.792 1789.84 383.383 1789.84 376.274ZM2185.02 450.87V314.435H2186.36L2239.05 439.452H2277.61L2330.5 314.435H2331.84V450.87H2384.34V246.872H2312.74L2259.48 380.079H2258.14L2204.88 246.872H2132.52V450.87H2185.02ZM2699.15 246.872V450.87H2643.4V365.434H2642.25C2636.27 372.026 2628.63 377.157 2619.34 380.841C2610.05 384.525 2599.93 386.352 2588.99 386.352C2565.57 386.352 2547.18 379.76 2533.81 366.561C2520.57 353.255 2513.96 335.048 2513.96 311.953V246.872H2569.7V303.017C2569.7 315.318 2573.01 324.635 2579.63 330.983C2586.25 337.194 2595.67 340.315 2607.89 340.315C2615.4 340.315 2622.33 339.036 2628.7 336.509C2635.06 333.83 2639.96 330.344 2643.4 326.035V246.872H2699.15ZM2839.84 455.056C2854.48 455.056 2867.21 453.153 2878.03 449.347C2888.97 445.541 2898.2 440.472 2905.71 434.124C2913.35 427.775 2919.39 420.803 2923.85 413.191C2928.3 405.579 2931.29 398.028 2932.82 390.553L2933.39 388.453H2882.23L2881.85 389.594C2880.57 393.4 2878.15 397.145 2874.59 400.814C2871.03 404.498 2866.44 407.543 2860.84 409.948C2855.24 412.369 2848.63 413.572 2840.99 413.572C2831.32 413.572 2822.98 411.471 2815.98 407.299C2808.98 402.976 2803.57 396.826 2799.75 388.833C2796.29 381.343 2794.45 372.392 2794.24 361.994H2935.11V344.882C2935.11 324.33 2931.1 306.366 2923.08 291.021C2915.19 275.675 2903.93 263.801 2889.29 255.428C2874.78 246.933 2857.54 242.686 2837.55 242.686C2817.57 242.686 2800.2 247.055 2785.43 255.824C2770.8 264.44 2759.4 276.741 2751.26 292.726C2743.24 308.589 2739.23 327.375 2739.23 349.054V349.251C2739.23 370.945 2743.24 389.716 2751.26 405.579C2759.4 421.442 2770.99 433.682 2786.01 442.314C2801.02 450.809 2818.97 455.056 2839.84 455.056ZM2799.75 308.909C2797.33 314.146 2795.71 320.174 2794.87 326.979H2881.59C2881.21 323.691 2880.64 320.585 2879.9 317.662C2879.06 314.374 2877.99 311.329 2876.69 308.528C2875.22 305.285 2873.51 302.362 2871.56 299.759C2868.65 295.862 2865.2 292.695 2861.23 290.26C2854.74 286.195 2847.16 284.17 2838.51 284.17C2829.85 284.17 2822.15 286.271 2815.41 290.442C2812.81 292.102 2810.42 294.05 2808.26 296.303C2807.05 297.552 2805.91 298.891 2804.84 300.338C2802.93 302.895 2801.24 305.757 2799.75 308.909ZM3030.18 517.473H2974.43V246.872H3030.18V282.465H3031.52C3033.86 277.228 3036.66 272.448 3039.93 268.14L3041.51 266.145L3042.97 264.41C3043.95 263.298 3044.97 262.202 3046.03 261.152C3048.43 258.807 3050.97 256.676 3053.66 254.758C3055.92 253.16 3058.28 251.713 3060.74 250.419C3062.83 249.323 3064.98 248.334 3067.22 247.451C3075.36 244.269 3084.27 242.686 3093.95 242.686C3111.26 242.686 3126.15 246.933 3138.62 255.428C3151.09 263.801 3160.7 275.919 3167.45 291.782C3174.2 307.645 3177.57 326.614 3177.57 348.688V348.871C3177.57 370.945 3174.2 389.914 3167.45 405.777C3160.83 421.625 3151.35 433.804 3139 442.314C3126.66 450.809 3111.89 455.056 3094.71 455.056C3085.04 455.056 3076.06 453.473 3067.79 450.291C3059.52 447.125 3052.33 442.679 3046.22 436.986C3040.11 431.14 3035.14 424.167 3031.33 416.038H3030.18V517.473ZM3051.75 401.773C3058.63 406.599 3066.58 409.004 3075.62 409.004C3081.28 409.004 3086.46 408.122 3091.18 406.325C3094.21 405.183 3097.04 403.661 3099.67 401.773C3106.42 396.826 3111.64 389.853 3115.33 380.841C3119.02 371.828 3120.87 361.172 3120.87 348.871V348.688C3120.87 336.25 3119.02 325.533 3115.33 316.521C3113.79 312.745 3111.96 309.35 3109.86 306.351C3108.48 304.372 3106.99 302.56 3105.37 300.901L3104.47 300.018L3103.54 299.15L3102.87 298.557L3101.3 297.293L3099.48 295.969C3092.74 291.143 3084.78 288.737 3075.62 288.737C3066.58 288.737 3058.63 291.204 3051.75 296.166C3044.88 300.977 3039.54 307.889 3035.72 316.901C3031.9 325.777 3029.99 336.433 3029.99 348.871V349.054C3029.99 361.233 3031.9 371.828 3035.72 380.841C3039.66 389.853 3045.01 396.826 3051.75 401.773ZM3310.25 455.056C3324.89 455.056 3337.61 453.153 3348.43 449.347C3359.38 445.541 3368.61 440.472 3376.12 434.124C3383.75 427.775 3389.8 420.803 3394.25 413.191C3398.71 405.579 3401.7 398.028 3403.23 390.553L3403.8 388.453H3352.63L3352.25 389.594C3350.98 393.4 3348.56 397.145 3345 400.814C3341.43 404.498 3336.85 407.543 3331.25 409.948C3325.65 412.369 3319.03 413.572 3311.39 413.572C3301.72 413.572 3293.38 411.471 3286.38 407.299C3279.38 402.976 3273.97 396.826 3270.16 388.833C3266.69 381.343 3264.86 372.392 3264.64 361.994H3405.52V344.882C3405.52 324.33 3401.51 306.366 3393.49 291.021C3385.6 275.675 3374.33 263.801 3359.7 255.428C3345.19 246.933 3327.94 242.686 3307.96 242.686C3287.97 242.686 3270.6 247.055 3255.84 255.824C3241.2 264.44 3229.81 276.741 3221.66 292.726C3213.64 308.589 3209.64 327.375 3209.64 349.054V349.251C3209.64 370.945 3213.64 389.716 3221.66 405.579C3229.81 421.442 3241.39 433.682 3256.41 442.314C3271.43 450.809 3289.38 455.056 3310.25 455.056ZM3270.16 308.909C3267.74 314.146 3266.11 320.174 3265.28 326.979H3352C3351.17 319.961 3349.54 313.811 3347.1 308.528C3343.4 300.414 3338.25 294.324 3331.63 290.26C3325.14 286.195 3317.57 284.17 3308.91 284.17C3300.26 284.17 3292.56 286.271 3285.81 290.442C3281.95 292.893 3278.56 296.014 3275.65 299.805C3274.33 301.525 3273.11 303.367 3271.99 305.346C3271.35 306.488 3270.73 307.676 3270.16 308.909ZM3575.62 447.246C3562.25 452.453 3546.53 455.056 3528.46 455.056C3510.51 455.056 3494.92 452.453 3481.68 447.246C3468.45 442.055 3457.95 434.626 3450.18 424.989C3442.42 415.216 3437.84 403.494 3436.44 389.792L3436.25 387.874H3489.13L3489.7 389.975C3491.87 397.587 3496.19 403.357 3502.69 407.299C3509.18 411.105 3517.64 412.993 3528.08 412.993C3538.9 412.993 3547.3 410.907 3553.28 406.721C3559.39 402.413 3562.44 396.445 3562.44 388.833V388.453C3562.44 380.582 3559.52 374.751 3553.66 370.945C3547.81 367.018 3539.02 365.038 3527.31 365.038H3499.63V330.42H3526.93C3537.37 330.42 3545.2 328.502 3550.42 324.696C3555.63 320.89 3558.24 315.257 3558.24 307.767V307.386C3558.24 300.155 3555.63 294.568 3550.42 290.64C3545.2 286.713 3537.88 284.749 3528.46 284.749C3518.66 284.749 3510.77 286.713 3504.79 290.64C3498.93 294.446 3495.24 300.094 3493.71 307.584L3493.52 309.107H3441.4L3441.59 307.584C3443.37 293.487 3447.89 281.628 3455.15 271.991C3462.53 262.355 3472.52 255.062 3485.12 250.1C3497.72 245.167 3512.68 242.686 3529.99 242.686C3547.17 242.686 3561.87 245.03 3574.09 249.734C3586.44 254.301 3595.92 260.893 3602.54 269.525C3609.15 278.02 3612.46 288.235 3612.46 300.155V300.536C3612.46 311.573 3609.15 320.89 3602.54 328.502C3596.04 336.113 3586.82 341.259 3574.85 343.923V345.446C3584.27 347.09 3592.16 350.013 3598.53 354.199C3605.02 358.264 3609.85 363.394 3613.04 369.606C3616.35 375.695 3618 382.805 3618 390.919V391.315C3618 404.118 3614.31 415.353 3606.93 424.989C3599.54 434.504 3589.11 441.918 3575.62 447.246ZM1483.61 840.596H1541.27V613.383H1621.07V565.991H1404V613.383H1483.61V840.596ZM1727.98 844.372C1724.36 844.646 1720.6 844.783 1716.72 844.783C1695.84 844.783 1677.9 840.535 1662.88 832.041C1647.86 823.409 1636.28 811.169 1628.13 795.306C1620.11 779.443 1616.1 760.672 1616.1 738.978V738.78C1616.1 717.102 1620.11 698.316 1628.13 682.453C1636.28 666.468 1647.67 654.167 1662.3 645.55C1677.07 636.781 1694.44 632.412 1714.42 632.412C1734.41 632.412 1751.65 636.66 1766.16 645.154C1780.8 653.528 1792.06 665.402 1799.95 680.748C1807.97 696.093 1811.98 714.057 1811.98 734.609V751.72H1671.11C1671.32 762.118 1673.16 771.07 1676.62 778.56C1680.44 786.552 1685.85 792.703 1692.85 797.026C1699.85 801.197 1708.19 803.298 1717.86 803.298C1722.08 803.298 1725.99 802.933 1729.59 802.187C1732.5 801.593 1735.21 800.756 1737.72 799.675C1743.32 797.27 1747.9 794.225 1751.46 790.541C1755.03 786.872 1757.44 783.127 1758.72 779.321L1759.1 778.179H1810.26L1809.69 780.28C1808.16 787.755 1805.17 795.306 1800.72 802.918C1796.26 810.53 1790.22 817.502 1782.58 823.85C1775.07 830.199 1765.84 835.268 1754.9 839.074C1749.27 841.053 1743.13 842.515 1736.46 843.458C1735.13 843.656 1733.78 843.824 1732.4 843.976L1729.14 844.28L1727.98 844.372ZM1671.74 716.706C1672.22 712.809 1672.96 709.155 1673.96 705.775C1674.7 703.248 1675.59 700.873 1676.62 698.635C1680.44 690.521 1685.66 684.371 1692.28 680.169C1699.02 675.998 1706.72 673.897 1715.38 673.897C1724.03 673.897 1731.61 675.922 1738.1 679.986C1744.72 684.051 1749.87 690.141 1753.56 698.255C1756 703.537 1757.64 709.688 1758.47 716.706H1671.74ZM1920.8 746.027L1925 678.647H1981.32V840.596H2037.07V636.599H1877.08L1870.97 741.46C1870.33 753.639 1869 763.656 1866.96 771.511C1866.09 775.104 1865.01 778.271 1863.71 781.011C1862.17 784.284 1860.32 786.948 1858.18 789.018C1854.23 792.703 1848.95 794.545 1842.33 794.545C1839.79 794.545 1837.56 794.423 1835.65 794.164C1833.74 793.905 1832.21 793.662 1831.07 793.403V840.018C1832.72 840.535 1835.33 841.038 1838.89 841.54C1842.46 842.18 1846.79 842.499 1851.88 842.499C1868.68 842.499 1881.85 838.572 1891.4 830.701C1900.94 822.83 1907.94 811.671 1912.4 797.209C1916.85 782.746 1919.65 765.681 1920.8 746.027ZM2216.14 839.074C2205.32 842.88 2192.59 844.783 2177.96 844.783C2157.08 844.783 2139.14 840.535 2124.12 832.041C2109.1 823.409 2097.52 811.169 2089.37 795.306C2081.35 779.443 2077.34 760.672 2077.34 738.978V738.78C2077.34 717.102 2081.35 698.316 2089.37 682.453C2097.52 666.468 2108.91 654.167 2123.54 645.55C2138.31 636.781 2155.68 632.412 2175.67 632.412C2195.65 632.412 2212.89 636.66 2227.4 645.154C2242.04 653.528 2253.3 665.402 2261.2 680.748C2269.21 696.093 2273.22 714.057 2273.22 734.609V751.72H2132.35C2132.56 762.118 2134.4 771.07 2137.86 778.56C2141.68 786.552 2147.09 792.703 2154.09 797.026C2161.09 801.197 2169.43 803.298 2179.1 803.298C2186.74 803.298 2193.36 802.096 2198.96 799.675C2204.56 797.27 2209.14 794.225 2212.7 790.541C2216.27 786.872 2218.68 783.127 2219.96 779.321L2220.34 778.179H2271.51L2270.93 780.28C2269.41 787.755 2266.41 795.306 2261.96 802.918C2259.78 806.647 2257.22 810.21 2254.28 813.635C2251.21 817.198 2247.72 820.608 2243.82 823.85C2236.31 830.199 2227.09 835.268 2216.14 839.074ZM2132.99 716.706C2133.29 714.255 2133.69 711.895 2134.2 709.642C2134.55 708.089 2134.95 706.582 2135.4 705.121C2136.1 702.837 2136.92 700.675 2137.86 698.635C2141.68 690.521 2146.9 684.371 2153.52 680.169C2160.26 675.998 2167.96 673.897 2176.62 673.897C2185.27 673.897 2192.85 675.922 2199.34 679.986C2205.96 684.051 2211.11 690.141 2214.8 698.255C2216.24 701.36 2217.39 704.755 2218.27 708.455C2218.61 709.901 2218.91 711.393 2219.17 712.915L2219.52 715.244L2219.71 716.706H2132.99ZM2455.54 678.464V636.599H2312.93V840.596H2368.67V678.464H2455.54ZM2550.99 907.2H2495.25V636.599H2550.99V672.192H2552.33C2556.02 663.941 2560.86 656.831 2566.84 650.879C2572.95 644.911 2580.01 640.344 2588.03 637.177C2596.18 633.996 2605.09 632.412 2614.76 632.412C2632.07 632.412 2646.96 636.66 2659.43 645.154C2671.91 653.528 2681.52 665.646 2688.26 681.509C2695.01 697.372 2698.38 716.341 2698.38 738.415V738.598C2698.38 760.672 2695.01 779.641 2688.26 795.504C2681.64 811.352 2672.16 823.531 2659.82 832.041C2647.47 840.535 2632.71 844.783 2615.52 844.783C2605.85 844.783 2596.88 843.2 2588.6 840.018C2580.33 836.851 2573.14 832.406 2567.03 826.712C2560.92 820.866 2555.96 813.894 2552.14 805.765H2550.99V907.2ZM2572.57 791.5C2579.44 796.326 2587.4 798.731 2596.43 798.731C2605.72 798.731 2613.74 796.326 2620.49 791.5C2627.23 786.552 2632.45 779.58 2636.14 770.567C2639.83 761.555 2641.68 750.898 2641.68 738.598V738.415C2641.68 725.977 2639.83 715.26 2636.14 706.247C2632.45 697.235 2627.17 690.384 2620.3 685.695C2613.55 680.869 2605.6 678.464 2596.43 678.464C2587.4 678.464 2579.44 680.93 2572.57 685.893C2565.69 690.704 2560.35 697.615 2556.53 706.628C2552.71 715.503 2550.8 726.16 2550.8 738.598V738.78C2550.8 750.959 2552.71 761.555 2556.53 770.567C2560.48 779.58 2565.82 786.552 2572.57 791.5ZM2798.8 843.824C2807.83 843.824 2816.17 842.499 2823.81 839.835C2831.44 837.049 2838.25 833.167 2844.23 828.235C2850.34 823.15 2855.31 817.121 2859.13 810.149H2860.27V840.596H2916.02V700.721C2916.02 687.02 2912.39 675.039 2905.14 664.763C2898.01 654.487 2887.95 646.555 2874.97 640.983C2861.99 635.259 2846.65 632.412 2828.96 632.412C2811.02 632.412 2795.49 635.198 2782.38 640.785C2769.4 646.235 2759.21 653.847 2751.83 663.621C2744.58 673.394 2740.44 684.553 2739.42 697.113L2739.23 699.397H2790.21L2790.59 697.676C2791.99 691.084 2795.74 685.634 2801.85 681.326C2807.96 677.002 2816.23 674.841 2826.67 674.841C2837.62 674.841 2845.95 677.52 2851.68 682.848C2857.41 688.04 2860.27 695.149 2860.27 704.162V716.63L2809.68 719.751C2784.35 721.41 2764.75 727.56 2750.88 738.217C2737 748.752 2730.07 763.275 2730.07 781.802V782.168C2730.07 794.103 2732.93 804.76 2738.66 814.138C2744.51 823.409 2752.59 830.701 2762.9 836.029C2773.21 841.236 2785.18 843.824 2798.8 843.824ZM2860.27 766V751.309L2818.08 754.004C2807.39 754.643 2799.24 757.186 2793.64 761.616C2788.04 765.939 2785.24 771.709 2785.24 778.94V779.321C2785.24 786.811 2788.11 792.703 2793.83 797.026C2799.56 801.197 2807.26 803.298 2816.93 803.298C2825.21 803.298 2832.59 801.715 2839.08 798.548C2845.7 795.245 2850.85 790.8 2854.54 785.213C2858.36 779.519 2860.27 773.11 2860.27 766ZM3015.48 704.162V840.596H2962.98V636.599H3035.34L3088.6 769.806H3089.94L3143.2 636.599H3214.8V840.596H3162.3V704.162H3160.96L3108.07 829.179H3069.51L3016.82 704.162H3015.48Z" fill="#1D94D3"/>
<defs>
<linearGradient id="paint0_linear_235_18932" x1="540" y1="1080" x2="540" y2="0" gradientUnits="userSpaceOnUse">
<stop stop-color="#1D93D2"/>
<stop offset="1" stop-color="#38B0E3"/>
</linearGradient>
</defs>
</svg>