<svg width="3844" height="1080" viewBox="0 0 3844 1080" fill="none" xmlns="http://www.w3.org/2000/svg">
<g clip-path="url(#clip0_176_4169)">
<path d="M0 518.4C0 274.05 0 151.875 75.8092 75.825C151.618 -0.225 273.993 7.786e-06 518.292 7.786e-06H561.483C805.782 7.786e-06 927.932 5.36442e-06 1003.97 75.825C1079.78 151.65 1079.78 273.825 1079.78 518.4V561.6C1079.78 805.95 1079.78 928.125 1003.97 1004.18C928.157 1080 806.007 1080 561.483 1080H518.292C273.993 1080 151.843 1080 75.8092 1004.18C0 928.125 0 805.95 0 561.6V518.4Z" fill="#0077FF"/>
<path d="M574.531 778.05C328.432 778.05 188.061 609.3 182.212 328.5H305.486C309.536 534.6 400.417 621.9 472.402 639.9V328.5H588.478V506.25C659.563 498.6 734.247 417.6 759.442 328.5H875.518C856.172 438.3 775.189 519.3 717.601 552.6C775.189 579.6 867.419 650.25 902.512 778.05H774.739C747.294 692.55 678.909 626.4 588.478 617.4V778.05H574.531V778.05Z" fill="white"/>
</g>
<path d="M1482.1 351.421H1523.62C1559.23 351.421 1580.31 367.013 1580.31 393.14V393.562C1580.31 418.214 1558.39 434.227 1524.67 434.227C1489.48 434.227 1467.98 420.953 1465.24 397.355L1465.03 395.458H1403.71V397.776C1405.6 450.662 1453.65 487.114 1524.04 487.114C1594.85 487.114 1645.22 449.819 1645.22 397.776V397.355C1645.22 357.11 1619.51 328.244 1578.41 323.609V321.923C1612.55 314.759 1635.52 287.157 1635.52 253.445V253.023C1635.52 204.983 1591.69 172.535 1525.52 172.535C1457.45 172.535 1412.98 206.458 1410.66 260.609L1410.45 263.137H1469.67L1469.88 260.609C1472.62 238.274 1492.22 225.421 1524.04 225.421C1556.28 225.421 1574.62 238.485 1574.62 260.819V261.241C1574.62 285.682 1554.6 301.696 1522.99 301.696H1482.1V351.421Z" fill="#0077FF"/>
<path d="M1758.16 485.428C1787.67 485.428 1811.69 471.311 1824.76 448.134H1826.02V481.846H1887.56V326.98C1887.56 281.468 1849.63 251.338 1791.46 251.338C1731.61 251.338 1695.79 281.258 1692.41 322.977L1692.2 325.505H1748.47L1748.89 323.609C1752.05 309.07 1765.75 298.324 1788.72 298.324C1812.96 298.324 1826.02 310.756 1826.02 330.773V344.679L1770.18 348.05C1713.91 351.632 1682.09 375.652 1682.09 416.739V417.161C1682.09 456.983 1712.86 485.428 1758.16 485.428ZM1742.99 414V413.579C1742.99 397.565 1755.64 387.452 1779.45 385.977L1826.02 383.027V399.251C1826.02 422.849 1805.58 440.548 1777.97 440.548C1756.9 440.548 1742.99 430.645 1742.99 414Z" fill="#0077FF"/>
<path d="M2046.66 232.585C2095.97 232.585 2126.95 206.037 2126.95 164.107V162H2080.59V163.896C2080.59 181.595 2067.94 196.555 2046.87 196.555C2025.37 196.555 2012.94 181.595 2012.94 163.896V162H1966.79V164.107C1966.79 206.037 1997.56 232.585 2046.66 232.585ZM1939.39 481.846H1999.66L2088.6 338.99H2090.91V481.846H2151.4V255.973H2091.12L2001.98 396.933H1999.87V255.973H1939.39V481.846Z" fill="#0077FF"/>
<path d="M2262.24 481.846V330.773H2263.71L2321.88 469.204H2364.45L2422.82 330.773H2424.3V481.846H2482.25V255.973H2403.22L2344.43 403.465H2342.95L2284.15 255.973H2204.28V481.846H2262.24Z" fill="#0077FF"/>
<path d="M2829.74 481.846V255.973H2768.21V343.625C2760.62 353.107 2745.66 359.428 2729.01 359.428C2702.03 359.428 2686.86 345.311 2686.86 318.13V255.973H2625.33V328.033C2625.33 379.023 2656.3 410.418 2708.15 410.418C2732.38 410.418 2753.67 401.779 2766.94 387.241H2768.21V481.846H2829.74Z" fill="#0077FF"/>
<path d="M2985.05 486.482C3049.33 486.482 3080.51 448.344 3087.68 415.054L3088.1 412.736H3031.62L3031.2 414C3026.99 426.642 3011.6 440.548 2986.31 440.548C2954.91 440.548 2935.31 419.478 2934.47 383.448H3090V364.485C3090 296.217 3048.69 251.338 2982.52 251.338C2916.14 251.338 2873.78 297.271 2873.78 369.12V369.331C2873.78 441.602 2915.72 486.482 2985.05 486.482ZM2983.57 297.271C3008.86 297.271 3027.2 313.495 3030.99 344.679H2935.31C2939.32 314.127 2958.07 297.271 2983.57 297.271Z" fill="#0077FF"/>
<path d="M3133.61 555.592H3195.15V443.288H3196.41C3208.64 470.047 3233.92 486.482 3266.38 486.482C3322.86 486.482 3357.63 442.234 3357.63 368.91V368.699C3357.63 295.164 3322.86 251.338 3265.54 251.338C3233.29 251.338 3208.85 267.983 3196.41 295.375H3195.15V255.973H3133.61V555.592ZM3245.09 435.492C3215.38 435.492 3194.73 409.786 3194.73 369.12V368.91C3194.73 328.033 3215.38 302.328 3245.09 302.328C3275.65 302.328 3295.04 327.401 3295.04 368.699V368.91C3295.04 409.997 3275.86 435.492 3245.09 435.492Z" fill="#0077FF"/>
<path d="M3504.3 486.482C3568.57 486.482 3599.76 448.344 3606.93 415.054L3607.35 412.736H3550.87L3550.45 414C3546.23 426.642 3530.85 440.548 3505.56 440.548C3474.16 440.548 3454.56 419.478 3453.72 383.448H3609.24V364.485C3609.24 296.217 3567.94 251.338 3501.77 251.338C3435.38 251.338 3393.03 297.271 3393.03 369.12V369.331C3393.03 441.602 3434.96 486.482 3504.3 486.482ZM3502.82 297.271C3528.11 297.271 3546.44 313.495 3550.24 344.679H3454.56C3458.57 314.127 3477.32 297.271 3502.82 297.271Z" fill="#0077FF"/>
<path d="M3745.16 486.482C3805.01 486.482 3844 458.458 3844 415.896V415.475C3844 388.505 3827.35 370.806 3796.37 365.117V363.431C3822.72 357.532 3837.89 339.833 3837.89 315.391V314.97C3837.89 275.358 3803.54 251.338 3746.85 251.338C3689.32 251.338 3655.18 276.622 3649.28 323.187L3649.07 324.873H3706.6L3706.81 323.187C3709.97 306.542 3723.46 297.903 3745.16 297.903C3765.82 297.903 3778.04 307.174 3778.04 322.977V323.398C3778.04 339.833 3766.45 348.472 3743.48 348.472H3713.34V386.819H3743.9C3769.82 386.819 3782.67 395.458 3782.67 412.736V413.157C3782.67 430.013 3768.56 439.916 3744.74 439.916C3721.56 439.916 3707.02 431.488 3702.38 414.421L3701.75 412.104H3643.38L3643.59 414.211C3648.22 459.722 3685.95 486.482 3745.16 486.482Z" fill="#0077FF"/>
<path d="M1415.3 913.365H1549.96C1614.87 913.365 1655.12 880.074 1655.12 826.766V826.344C1655.12 786.522 1624.35 756.602 1582.2 753.441V752.177C1615.5 747.753 1641 719.308 1641 686.017V685.595C1641 638.819 1604.96 609.321 1547.64 609.321H1415.3V913.365ZM1531.21 656.518C1560.92 656.518 1578.41 670.425 1578.41 694.656V695.077C1578.41 721.415 1559.02 736.375 1523.41 736.375H1478.94V656.518H1531.21ZM1530.78 779.569C1569.77 779.569 1590 794.528 1590 822.341V822.763C1590 850.997 1569.98 865.957 1533.52 865.957H1478.94V779.569H1530.78Z" fill="#0077FF"/>
<path d="M1767.44 818.548L1838.03 913.365H1912L1820.75 792.211L1906.74 687.492H1836.77L1767.44 776.197H1760.06V687.492H1698.52V913.365H1760.06V818.548H1767.44Z" fill="#0077FF"/>
<path d="M2043.29 918C2111.57 918 2155.19 874.174 2155.19 800.428V800.007C2155.19 726.893 2110.93 682.856 2043.29 682.856C1975.64 682.856 1931.38 727.314 1931.38 800.007V800.428C1931.38 873.963 1974.8 918 2043.29 918ZM2043.5 869.749C2013.15 869.749 1993.97 844.676 1993.97 800.428V800.007C1993.97 756.391 2013.57 731.107 2043.29 731.107C2073.21 731.107 2092.6 756.391 2092.6 800.007V800.428C2092.6 844.465 2073.63 869.749 2043.5 869.749Z" fill="#0077FF"/>
<path d="M2347.17 913.365H2408.7V687.492H2347.17V774.301H2260.76V687.492H2199.23V913.365H2260.76V820.866H2347.17V913.365Z" fill="#0077FF"/>
<path d="M2644.72 687.492H2448.73V734.057H2515.96V913.365H2577.5V734.057H2644.72V687.492Z" fill="#0077FF"/>
<path d="M2747.34 916.946C2776.85 916.946 2800.87 902.829 2813.94 879.652H2815.2V913.365H2876.74V758.498C2876.74 712.987 2838.8 682.856 2780.64 682.856C2720.79 682.856 2684.96 712.776 2681.59 754.495L2681.38 757.023H2737.65L2738.07 755.127C2741.23 740.589 2754.93 729.843 2777.9 729.843C2802.14 729.843 2815.2 742.274 2815.2 762.291V776.197L2759.36 779.569C2703.09 783.15 2671.27 807.171 2671.27 848.258V848.679C2671.27 888.502 2702.03 916.946 2747.34 916.946ZM2732.17 845.518V845.097C2732.17 829.084 2744.81 818.97 2768.63 817.495L2815.2 814.545V830.769C2815.2 854.368 2794.76 872.067 2767.15 872.067C2746.08 872.067 2732.17 862.164 2732.17 845.518Z" fill="#0077FF"/>
<path d="M2997.48 818.548L3068.08 913.365H3142.05L3050.8 792.211L3136.78 687.492H3066.82L2997.48 776.197H2990.11V687.492H2928.57V913.365H2990.11V818.548H2997.48Z" fill="#0077FF"/>
<path d="M3354.68 687.492H3158.69V734.057H3225.92V913.365H3287.45V734.057H3354.68V687.492Z" fill="#0077FF"/>
<path d="M3492.92 918C3557.19 918 3588.38 879.863 3595.55 846.572L3595.97 844.254H3539.49L3539.07 845.518C3534.85 858.161 3519.47 872.067 3494.18 872.067C3462.78 872.067 3443.18 850.997 3442.34 814.967H3597.86V796.003C3597.86 727.736 3556.56 682.856 3490.39 682.856C3424 682.856 3381.65 728.789 3381.65 800.639V800.849C3381.65 873.12 3423.58 918 3492.92 918ZM3491.44 728.789C3516.73 728.789 3535.06 745.013 3538.86 776.197H3443.18C3447.19 745.645 3465.94 728.789 3491.44 728.789Z" fill="#0077FF"/>
<defs>
<clipPath id="clip0_176_4169">
<rect width="1079.78" height="1080" fill="white"/>
</clipPath>
</defs>
</svg>